# xmcd
#
# Track frame offsets:
#	150
#	16115
#	29987
#	46203
#	62319
#	79061
#	94685
#	107113
#	124130
#	154880
#	171857
#	190146
#
# Disc length: 2800 seconds
#
# Revision: 1
# Processed by: cddbd v1.5.2PL0 Copyright (c) Steve Scherf et al.
# Submitted via: audiograbber 1.83.01
#
DISCID=950aee0c
DTITLE=JonesTM - HC200818
DYEAR=2008
DGENRE=Country
TTITLE0=Laura Bryna - Life Is Good
TTITLE1=Rob Russell - Cowgirl Love
TTITLE2=Carter's Chord - Different Breed
TTITLE3=Eli Young Band - When It Rains
TTITLE4=Jason Aldean - Relentless [Radio Edit]
TTITLE5=One Flew South - My Kind Of Beautiful
TTITLE6=Karen Peck and New River - Whispered Prayers [Radio Edit]
TTITLE7=Fisher Stevenson - No Tomorrow Here Tonight [Radio Mix]
TTITLE8=God's Chosen - Love (Melody)
TTITLE9=Dwele - I'm Cheatin' [Clean]
TTITLE10=Algebra - Run and Hide
TTITLE11=Candy Dulfer - Back To Juan [Album Version]
EXTD=
EXTT0=
EXTT1=
EXTT2=
EXTT3=
EXTT4=
EXTT5=
EXTT6=
EXTT7=
EXTT8=
EXTT9=
EXTT10=
EXTT11=
PLAYORDER=
